# xmcd
#
# Track frame offsets: 
#        150
#        14760
#        29082
#        45127
#        60230
#        84307
#        106467
#        122192
#        139015
#        164477
#        184582
#        204617
#
# Disc length: 2996 seconds
#
# Revision: 4
# Processed by: cddbd v1.5.1PL0 Copyright (c) Steve Scherf et al.
# Submitted via: ExactAudioCopy v0.95b3
#
DISCID=9f0bb20c
DTITLE=The Jeff Healey Band - See The Light
DYEAR=1988
DGENRE=Blues
TTITLE0=Confidence Man
TTITLE1=My Little Girl
TTITLE2=River Of No Return
TTITLE3=Don't Let Your Chance Go By
TTITLE4=Angel Eyes
TTITLE5=Nice Problem To Have
TTITLE6=Someday, Someway
TTITLE7=I Need To Be Loved
TTITLE8=Blue Jean Blues
TTITLE9=That's What They Say
TTITLE10=Hideaway
TTITLE11=See The Light
EXTD=YEAR: 1988
EXTT0=
EXTT1=
EXTT2=
EXTT3=
EXTT4=
EXTT5=
EXTT6=
EXTT7=
EXTT8=
EXTT9=
EXTT10=
EXTT11=
PLAYORDER=
